# This file uses centimeters as units for non-parametric coordinates.

mtllib QuadPointy.mtl
g default
v -0.500000 -0.000000 0.500000
v 0.500000 -0.000000 0.500000
v -0.500000 0.000000 -0.500000
v 0.500000 0.000000 -0.500000
v 0.500000 0.000000 0.000000
v -0.500000 0.000000 0.000000
v 0.000000 -0.000000 0.500000
v 0.000000 0.564494 0.000000
v 0.000000 0.000000 -0.500000
vt 0.000000 0.000000
vt 1.000000 0.000000
vt 0.000000 1.000000
vt 1.000000 1.000000
vt 1.000000 0.500000
vt 0.000000 0.500000
vt 0.500000 0.000000
vt 0.500000 0.500000
vt 0.500000 1.000000
vn -0.441158 0.781511 0.441158
vn 0.000000 0.870833 0.491580
vn 0.000000 1.000000 0.000000
vn -0.491580 0.870833 0.000000
vn 0.000000 0.870833 -0.491580
vn -0.441158 0.781511 -0.441158
vn 0.441158 0.781511 0.441158
vn 0.491580 0.870833 0.000000
vn 0.441158 0.781511 -0.441158
s 1
g PointyQuad
usemtl initialShadingGroup
f 1/1/1 7/7/2 8/8/3 6/6/4
f 6/6/4 8/8/3 9/9/5 3/3/6
f 7/7/2 2/2/7 5/5/8 8/8/3
f 9/9/5 8/8/3 5/5/8 4/4/9
